<svg width="48" height="48" xmlns="http://www.w3.org/2000/svg"><g fill-rule="nonzero" fill="none"><path d="M12.905 9.63h7.807c1.19 0 1.786.583 1.786 1.75v7.647c0 1.167-.595 1.75-1.786 1.75h-7.807c-1.19 0-1.786-.583-1.786-1.75V11.38c0-1.167.595-1.75 1.786-1.75z" fill="#0057A0"/><path d="M35.772 36.615h-5.913c-1.5 0-2.716-1.19-2.716-2.66V28.25c0-1.47 1.216-2.66 2.716-2.66h5.913c1.495.01 2.705 1.195 2.715 2.66v5.775c-.048 1.438-1.247 2.581-2.715 2.59zm-5.913-9.328c-.24 0-.47.095-.638.263a.866.866 0 0 0-.256.63v5.775a.866.866 0 0 0 .256.63.903.903 0 0 0 .638.262h5.913c.24 0 .47-.094.638-.262a.866.866 0 0 0 .255-.63V28.25a.866.866 0 0 0-.255-.63.903.903 0 0 0-.638-.263l-5.913-.07z" fill="#FFA709"/><path d="M24.195 36.615a.885.885 0 0 1-.643-.263L11.244 24.225a.862.862 0 0 1 0-1.225.925.925 0 0 1 1.286 0l12.29 12.128a.88.88 0 0 1 0 1.26.94.94 0 0 1-.625.227zM37.915 23.175A.925.925 0 0 1 37.22 23L24.964 10.75a.897.897 0 0 1 0-1.26.903.903 0 0 1 1.268 0l12.309 12.127a.88.88 0 0 1 .196.972.911.911 0 0 1-.84.551l.018.035z" fill="#C4C4C4"/></g></svg>