<svg width="48" height="48" xmlns="http://www.w3.org/2000/svg"><g transform="translate(7.146 4)" fill="none" fill-rule="evenodd"><rect stroke="#FFA709" stroke-width="4" x="12.208" y="12" width="11.313" height="16" rx="5.656"/><rect fill="#0057A0" x="6.125" y="20" width="23.479" height="15" rx="2"/><rect fill="#FFA709" x="15.313" width="4.083" height="7" rx="2"/><rect fill="#FFA709" y="15" width="7.146" height="4" rx="2"/><path d="M7.569 4.586l2.165 2.121a1.971 1.971 0 0 1 0 2.829 2.072 2.072 0 0 1-2.887 0L4.68 7.414a1.971 1.971 0 0 1 0-2.828 2.072 2.072 0 0 1 2.888 0zM27.264 4.586l-2.166 2.121a1.971 1.971 0 0 0 0 2.829c.797.78 2.09.78 2.887 0l2.166-2.122a1.971 1.971 0 0 0 0-2.828 2.072 2.072 0 0 0-2.887 0z" fill="#FFA709"/><rect fill="#FFA709" x="28.583" y="15" width="7.146" height="4" rx="2"/><ellipse fill="#FFF" cx="17.865" cy="26" rx="2.042" ry="2"/><rect fill="#FFF" x="16.844" y="27" width="2.042" height="4" rx="1"/></g></svg>