<svg width="48" height="48" xmlns="http://www.w3.org/2000/svg"><g transform="translate(12.464 11)" fill="none" fill-rule="evenodd"><ellipse fill="#19C340" cx="12.25" cy="7.409" rx="7.563" ry="7.409"/><ellipse fill="#0984D8" cx="7.563" cy="16.383" rx="7.563" ry="7.409"/><ellipse fill="#D62B2D" cx="16.937" cy="16.383" rx="7.563" ry="7.409"/><path d="M12.25 10.568c1.752 1.357 2.876 3.457 2.876 5.815 0 2.357-1.124 4.457-2.876 5.814-1.752-1.356-2.876-3.457-2.876-5.814 0-2.333 1.1-4.413 2.82-5.771l.056-.044z" fill="#E97514"/><path d="M7.563 8.974c3.465 0 6.386 2.282 7.28 5.396a7.685 7.685 0 0 1-2.593.447c-3.465 0-6.386-2.282-7.28-5.396a7.685 7.685 0 0 1 2.593-.447z" fill="#6CD5E9"/><path d="M16.937 8.974a7.69 7.69 0 0 1 2.594.447c-.895 3.114-3.816 5.396-7.281 5.396a7.69 7.69 0 0 1-2.594-.447c.895-3.114 3.816-5.396 7.281-5.396z" fill="#F4DA58"/><path d="M14.844 14.37a7.61 7.61 0 0 1-.662.203l-.17.042-.142.032-.077.016-.077.015-.114.021-.098.017-.15.023-.077.01-.143.018-.072.008-.043.005-.16.014.13-.011-.083.007-.082.006-.104.007-.075.004-.076.004-.132.004-.067.001-.12.001h-.12l-.068-.002-.068-.002-.137-.005-.146-.01-.038-.002a7.761 7.761 0 0 1-.162-.013l.13.01-.08-.006-.08-.007-.135-.015-.125-.016-.102-.014-.142-.022-.078-.013-.118-.022-.151-.031.132.027-.07-.014-.15-.032-.11-.026-.097-.024-.07-.018-.069-.02-.146-.04-.145-.046a7.61 7.61 0 0 1-.249-.084 7.41 7.41 0 0 1 2.594-3.802 7.41 7.41 0 0 1 2.594 3.802z" fill="#F6F6F6"/></g></svg>