<svg width="48" height="48" xmlns="http://www.w3.org/2000/svg" xmlns:xlink="http://www.w3.org/1999/xlink"><defs><path id="a" d="M.021 0h46.958v46H.021z"/></defs><g transform="translate(1)" fill="none" fill-rule="evenodd"><mask id="b" fill="#fff"><use xlink:href="#a"/></mask><g mask="url(#b)"><text font-family="PTMono-Regular, PT Mono" font-size="10" transform="translate(-17.333 3)"><tspan x="37.125" y="39" fill="#C4C4C4">&amp;nbsp;</tspan></text><text font-family="PTMono-Regular, PT Mono" font-size="10" transform="translate(-17.333 3)"><tspan x="41.208" y="24" fill="#C4C4C4">&amp;#198;</tspan></text><text font-family="PTMono-Regular, PT Mono" font-size="10" transform="translate(-17.333 3)"><tspan x=".375" y="24" fill="#C4C4C4">&amp;nbsp;</tspan></text><text font-family="PTMono-Regular, PT Mono" font-size="10" transform="translate(-17.333 3)"><tspan x="48.229" y="9" fill="#C4C4C4">&amp;lt;</tspan></text><text font-family="PTMono-Regular, PT Mono" font-size="10" transform="translate(-17.333 3)"><tspan x="11.604" y="9" fill="#C4C4C4">&amp;quot;</tspan></text><text font-family="PTMono-Regular, PT Mono" font-size="10" transform="translate(-17.333 3)"><tspan x="12.5" y="39" fill="#C4C4C4">&amp;gt;</tspan></text><path d="M22.787 9c2.018 0 3.961.588 5.351 1.68 1.33 1.044 2.181 2.54 2.181 4.449 0 2.43-1.555 4.468-3.83 6.054l1.307 1.423c.052-.49.096-1.042.151-1.703h6.17c-.39 3.253-.669 5.021-1.406 6.873l4.778 4.876-5.95 2.538-2.461-2.55C27.134 34.272 24.806 35 21.732 35c-2.843 0-5.076-.84-6.648-2.11-1.834-1.483-2.792-3.562-2.792-5.713 0-1.696.566-3.101 1.537-4.325.858-1.082 2.049-2.02 3.445-2.89-1.203-1.462-1.867-2.794-1.867-4.785 0-1.732.765-3.358 2.192-4.516C18.836 9.657 20.589 9 22.787 9zm-1.893 15.22c-.735.414-1.373.826-1.828 1.34-.382.43-.604.942-.604 1.617 0 .69.336 1.256.85 1.66.645.507 1.55.776 2.52.776.323 0 .67.035.879-.153.117-.105.095-.304.079-.533-.068-.947-.63-2.417-1.896-4.707zm1.944-9.785c-.36 0-.766.093-1.055.323a.64.64 0 0 0-.256.516c0 .662.502 1.268 1.092 1.89.82-.473 1.58-1.002 1.58-1.89a.672.672 0 0 0-.254-.552c-.263-.204-.65-.287-1.107-.287z" stroke="#FFF" stroke-width="2" fill="#0057A0" fill-rule="nonzero"/></g></g></svg>