<svg width="48" height="48" xmlns="http://www.w3.org/2000/svg"><g fill="none" fill-rule="evenodd"><path d="M32.816 27.46v2.621h4.148v4.054h-2.49l.001.81h-1.66L32.817 38H27.84l-.001-3.055H26.18v-.81H12.91l-2.49-4.054H27.84v-1.81l4.977-.812zm0-3.244v1.622l-4.976.81v-1.621l4.976-.81zm0-3.243v1.622l-4.976.81v-1.621l4.976-.811zm0-3.243v1.621l-4.976.811v-1.621l4.976-.811zm0-9.73v2.432h4.148v4.054h-4.148v1.622l-4.976.81-.001-2.432H10.422l2.488-4.054H27.84V8h4.977z" fill="#0057A0"/><g transform="translate(13.27 16)" fill-rule="nonzero"><rect fill="#FFA709" width="12.25" height="12" rx="1.8"/><path d="M10.412 5.926v.156a.31.31 0 0 1-.094.219L8.543 8a.219.219 0 0 1-.304 0l-.305-.293a.198.198 0 0 1-.063-.144c0-.054.023-.106.063-.144l1.48-1.416-1.48-1.416a.202.202 0 0 1-.063-.146c0-.055.023-.107.063-.146l.305-.288a.219.219 0 0 1 .304 0l1.775 1.7c.06.058.094.136.095.218zm-7.576.078l1.475-1.416a.198.198 0 0 0 .063-.144.198.198 0 0 0-.063-.144l-.304-.292a.219.219 0 0 0-.304 0l-1.771 1.7a.31.31 0 0 0-.095.218v.156c0 .082.035.16.095.219L3.707 8a.219.219 0 0 0 .304 0l.305-.289a.202.202 0 0 0 .063-.146.202.202 0 0 0-.063-.146l-1.48-1.416zm4.717-3.14l-.416-.153a.226.226 0 0 0-.279.124l-2.276 6.05a.204.204 0 0 0 .128.264l.403.14a.221.221 0 0 0 .275-.124l2.276-6.042a.204.204 0 0 0-.128-.26h.017z" fill="#FFF"/></g></g></svg>