<svg width="48" height="48" xmlns="http://www.w3.org/2000/svg"><g fill-rule="nonzero" fill="none"><path d="M27.615 14.114a.837.837 0 0 0-.586-.239h-8.782a.82.82 0 0 0-.829.813v17.874c0 .45.37.813.83.813h13.27a.82.82 0 0 0 .83-.813V19.088a.803.803 0 0 0-.244-.574l-4.49-4.4zm.378 14.005c0 .097-.088.178-.194.178h-5.832c-.106 0-.195-.081-.195-.178v-1.066c0-.097.089-.178.195-.178h5.832c.106 0 .194.081.194.178v1.066zm0-5.586c0 .097-.088.178-.194.178h-2.19v2.156a.18.18 0 0 1-.182.18H24.34a.182.182 0 0 1-.182-.18V22.71h-2.19c-.106 0-.195-.081-.195-.178v-1.066c0-.1.089-.178.195-.178h2.19v-2.156c0-.099.083-.18.182-.18h1.088a.18.18 0 0 1 .182.18v2.156h2.19c.106 0 .194.079.194.178v1.066z" fill="#0057A0"/><path d="M35.411 16.785l-6.296-5.934a.843.843 0 0 0-.575-.226h-7.597a.206.206 0 0 0-.207.203v1.422c0 .112.093.203.207.203h7.18l5.676 5.347v12.122c0 .112.093.203.208.203h1.451a.206.206 0 0 0 .207-.203V17.369c0-.221-.09-.432-.254-.584z" fill="#FFA709"/></g></svg>