<svg width="48" height="48" xmlns="http://www.w3.org/2000/svg"><g fill="none" fill-rule="evenodd"><path d="M13.102 21.375h9.953v-9.75h-9.953v9.75zm3.317-6.5h3.318v3.25h-3.318v-3.25zm9.953-3.25v9.75h9.953v-9.75h-9.953zm6.636 6.5H29.69v-3.25h3.318v3.25zm-19.906 16.25h9.953v-9.75h-9.953v9.75zm3.317-6.5h3.318v3.25h-3.318v-3.25z" fill="#0057A0" fill-rule="nonzero"/><path fill="#FFA709" fill-rule="nonzero" d="M34.667 32.75h1.658v1.625h-1.658zM31.349 32.75h1.659v1.625h-1.66z"/><path fill="#FFA709" d="M34.667 24.625h1.658v6.5H31.35V29.5H29.69v4.875h-3.318v-9.75h4.977v1.625h3.318z"/></g></svg>