<svg width="48" height="48" xmlns="http://www.w3.org/2000/svg"><g fill-rule="nonzero" fill="none"><path d="M38.111 20.867V11.4c0-.8-.68-1.467-1.497-1.467H26.542c-.817 0-1.498.667-1.498 1.467v9.467c0 .8.681 1.466 1.498 1.466h10.072c.817 0 1.497-.666 1.497-1.466z" fill="#0057A0"/><path d="M12.386 23.8c-.817 0-1.497.667-1.497 1.467v9.466c0 .8.68 1.467 1.497 1.467h10.072c.817 0 1.498-.667 1.498-1.467v-9.466c0-.8-.681-1.467-1.498-1.467H12.386z" fill="#FFA709"/><path d="M17.967 17.4h-1.498c0-2.533 2.178-4.667 4.764-4.667h.545c.408 0 .68-.266.68-.666v-1.734c0-.4-.272-.666-.68-.666h-.545c-4.355 0-7.894 3.466-7.894 7.733h-1.77c-.272 0-.408.267-.408.533 0 .134 0 .134.136.267l2.995 3.333c.272.267.68.267.952 0L18.24 18.2a.4.4 0 0 0 0-.533c-.136-.134-.136-.267-.272-.267zM31.033 28.6h1.498c0 2.533-2.178 4.667-4.764 4.667h-.545c-.408 0-.68.266-.68.666V35.8c0 .4.272.667.68.667h.545c4.355 0 7.894-3.467 7.894-7.734h1.77c.272 0 .408-.133.408-.4 0-.133 0-.133-.136-.266l-2.995-3.334a.667.667 0 0 0-.952 0l-2.995 3.334a.4.4 0 0 0 0 .533c0-.133.136 0 .272 0z" fill="#C4C4C4"/><path d="M15.389 33.8l.619-1.69h2.562l.652 1.69h1.705l-2.986-8h-1.184l-2.976 8h1.608zm2.801-3.018h-1.737l.575-1.646.261-1.27h.054l.26 1.259.587 1.657zM34.286 20.5l1.443-.635-1.535-1.615c.293-.671.402-1.252.53-2.286h-1.498c-.036.435-.073.744-.164 1.07l-1.26-1.415c.894-.544 1.589-1.27 1.589-2.196 0-1.252-1.151-1.923-2.375-1.923-1.462 0-2.32.907-2.32 1.942 0 .798.328 1.27.876 1.887-1.15.671-2.01 1.415-2.01 2.613 0 1.324 1.097 2.558 3.07 2.558 1.15 0 1.991-.308 2.686-1.034l.968 1.034zm-3.398-5.843c-.366-.399-.695-.78-.695-1.18 0-.471.457-.689.84-.689.53 0 .86.272.86.69 0 .544-.494.87-1.005 1.18zm-.22 4.573c-.858 0-1.59-.508-1.59-1.288 0-.817.604-1.18 1.39-1.615l1.9 2.086c-.439.527-1.005.817-1.7.817z" fill="#FFF"/></g></svg>