<svg width="48" height="48" xmlns="http://www.w3.org/2000/svg" xmlns:xlink="http://www.w3.org/1999/xlink"><defs><path id="a" d="M.021 0h46.958v46H.021z"/></defs><g transform="translate(1)" fill="none" fill-rule="evenodd"><mask id="b" fill="#fff"><use xlink:href="#a"/></mask><g mask="url(#b)"><text font-family="PTSans-Caption, PT Sans Caption" font-size="12" transform="translate(-3.042 -1)"><tspan x=".537" y="42" fill="#C4C4C4">503</tspan></text><text font-family="PTSans-Caption, PT Sans Caption" font-size="12" transform="translate(-3.042 -1)"><tspan x="25.308" y="46" fill="#C4C4C4">101</tspan></text><text font-family="PTSans-Caption, PT Sans Caption" font-size="12" transform="translate(-3.042 -1)"><tspan x=".308" y="19.612" fill="#C4C4C4">200</tspan></text><text font-family="PTSans-Caption, PT Sans Caption" font-size="12" transform="translate(-3.042 -1)"><tspan x="30.308" y="11.286" fill="#C4C4C4">403</tspan></text><text font-family="PTSans-Caption, PT Sans Caption" font-size="12" transform="translate(-3.042 -1)"><tspan x="29.308" y="31.061" fill="#C4C4C4">502</tspan></text><g stroke="#FFF" stroke-width="2" fill-rule="nonzero"><path d="M15.474 15.887H11.58l-7.622 9.969v3.01h6.806v4.14h4.71v-4.14h2.462V24.53h-2.462v-8.642zm24.451 0h-3.894l-7.621 9.969v3.01h6.805v4.14h4.71v-4.14h2.462V24.53h-2.462v-8.642z" fill="#0057A0"/><path d="M23.1 15.694c2.283 0 3.927.825 4.993 2.374.975 1.42 1.51 3.544 1.51 6.41 0 2.81-.567 4.933-1.613 6.403-1.142 1.604-2.765 2.425-4.89 2.425-1.12 0-2.087-.228-2.908-.663a5.585 5.585 0 0 1-2.074-1.898c-.508-.77-.893-1.7-1.144-2.795-.235-1.03-.356-2.188-.356-3.471 0-2.829.566-4.948 1.605-6.395 1.134-1.579 2.751-2.39 4.877-2.39zm0 4.509c-.223 0-.42.043-.581.156-.184.127-.316.33-.425.581-.347.803-.497 1.987-.497 3.539 0 1.482.157 2.657.506 3.516.113.278.249.501.44.642.155.115.343.16.557.16.237 0 .446-.042.617-.156.18-.119.31-.306.416-.541.347-.77.49-1.983.49-3.621 0-.765-.04-1.452-.124-2.062-.076-.551-.191-1.022-.355-1.41-.115-.273-.259-.493-.454-.64-.16-.12-.361-.164-.59-.164z" fill="#FFA709"/></g></g></g></svg>